<?xml version="1.0" encoding="UTF-8"?>
<svg xmlns="http://www.w3.org/2000/svg" xmlns:xlink="http://www.w3.org/1999/xlink" width="16pt" height="16pt" viewBox="0 0 16 16" version="1.1">
<g id="surface114313">
<path style=" stroke:none;fill-rule:nonzero;fill:rgb(90.588235%,29.803922%,23.529412%);fill-opacity:1;" d="M 8 15.5 C 3.863281 15.5 0.5 12.136719 0.5 8 C 0.5 3.863281 3.863281 0.5 8 0.5 C 12.136719 0.5 15.5 3.863281 15.5 8 C 15.5 12.136719 12.136719 15.5 8 15.5 Z M 8 15.5 "/>
<path style=" stroke:none;fill-rule:nonzero;fill:rgb(78.039216%,26.27451%,26.27451%);fill-opacity:1;" d="M 8 0.601562 C 12.082031 0.601562 15.398438 3.917969 15.398438 8 C 15.398438 12.082031 12.082031 15.398438 8 15.398438 C 3.917969 15.398438 0.601562 12.082031 0.601562 8 C 0.601562 3.917969 3.917969 0.601562 8 0.601562 M 8 0.398438 C 3.800781 0.398438 0.398438 3.800781 0.398438 8 C 0.398438 12.199219 3.800781 15.601562 8 15.601562 C 12.199219 15.601562 15.601562 12.199219 15.601562 8 C 15.601562 3.800781 12.199219 0.398438 8 0.398438 Z M 8 0.398438 "/>
<path style=" stroke:none;fill-rule:nonzero;fill:rgb(100%,100%,100%);fill-opacity:1;" d="M 5.597656 11.253906 L 4.746094 10.402344 L 10.402344 4.746094 L 11.253906 5.597656 Z M 5.597656 11.253906 "/>
<path style=" stroke:none;fill-rule:nonzero;fill:rgb(100%,100%,100%);fill-opacity:1;" d="M 4.746094 5.597656 L 5.597656 4.746094 L 11.253906 10.402344 L 10.402344 11.253906 Z M 4.746094 5.597656 "/>
</g>
</svg>
